<?xml version="1.0" standalone="no"?>
<!DOCTYPE svg PUBLIC "-//W3C//DTD SVG 20010904//EN"
 "http://www.w3.org/TR/2001/REC-SVG-20010904/DTD/svg10.dtd">
<svg version="1.0" xmlns="http://www.w3.org/2000/svg"
 width="914.000000pt" height="1280.000000pt" viewBox="0 0 914.000000 1280.000000"
 preserveAspectRatio="xMidYMid meet">
<g transform="translate(0.000000,1280.000000) scale(0.100000,-0.100000)"
fill="#000000" stroke="none">
<path d="M4325 12669 c-27 -3 -72 -16 -100 -29 -59 -27 -173 -134 -222 -208
-19 -29 -52 -70 -74 -90 -61 -56 -101 -116 -165 -242 -57 -112 -59 -117 -62
-210 -3 -87 -1 -99 22 -143 42 -78 66 -192 86 -409 8 -87 14 -113 35 -143 14
-21 25 -47 25 -58 0 -11 6 -28 13 -36 8 -9 32 -51 55 -93 30 -56 37 -78 27
-78 -22 0 -18 -15 5 -26 20 -9 117 -210 127 -264 6 -36 -13 -79 -40 -89 -12
-5 -29 -16 -36 -25 -24 -28 -96 -54 -231 -80 -210 -42 -304 -104 -390 -259
-56 -101 -83 -177 -134 -373 -24 -94 -63 -220 -86 -280 -23 -60 -91 -238 -150
-395 -108 -287 -131 -340 -214 -492 -74 -136 -93 -201 -171 -595 -79 -396
-122 -581 -174 -747 -28 -91 -41 -114 -142 -255 -61 -85 -115 -163 -121 -173
-5 -10 -8 -80 -7 -155 2 -126 0 -142 -24 -204 -14 -38 -24 -68 -21 -68 2 0 13
5 23 12 30 18 48 3 61 -54 21 -95 20 -93 34 -67 18 36 33 33 56 -10 11 -23 24
-41 28 -41 18 0 10 95 -14 177 -36 123 -34 179 7 240 37 55 143 165 177 182
18 10 29 9 56 -4 42 -20 46 -30 35 -86 -17 -88 -12 -124 23 -160 l32 -34 13
44 c7 25 17 79 23 120 5 42 16 98 25 125 21 70 19 164 -6 237 -25 73 -23 106
21 242 39 122 107 277 238 542 120 242 194 420 217 520 26 116 42 157 190 490
128 287 215 495 242 580 21 65 24 61 204 -379 38 -93 69 -183 69 -201 0 -17
29 -116 65 -220 36 -103 65 -202 64 -219 -1 -17 4 -82 10 -145 12 -134 6 -154
-66 -204 -209 -145 -265 -202 -523 -531 -188 -239 -295 -501 -359 -881 -14
-80 -24 -208 -31 -380 -6 -143 -15 -332 -21 -420 -13 -214 -24 -575 -16 -575
4 0 56 -7 117 -15 61 -9 184 -17 273 -18 141 -2 168 0 205 17 25 11 46 16 51
10 4 -5 20 -65 35 -133 16 -68 56 -224 91 -345 90 -319 104 -421 87 -673 -11
-166 -10 -165 -154 -349 -226 -291 -277 -393 -358 -715 -116 -463 -228 -822
-293 -944 l-43 -80 -84 -6 c-93 -6 -150 -26 -193 -67 -45 -43 -59 -79 -91
-233 -8 -36 -69 -108 -136 -160 -74 -57 -260 -240 -260 -256 0 -31 38 -6 127
82 101 100 206 185 229 185 19 0 18 -16 -11 -105 -52 -158 -152 -331 -277
-478 -28 -32 -33 -46 -31 -83 4 -105 113 -258 221 -311 45 -22 73 -28 149 -31
108 -5 112 -3 154 80 33 64 36 83 15 91 -11 5 -14 21 -11 68 6 104 15 137 51
190 19 28 34 61 34 74 0 12 7 28 15 35 8 7 12 16 9 21 -8 13 15 49 32 49 32 0
70 30 88 70 10 23 15 44 12 47 -9 9 23 63 38 63 39 0 64 49 80 152 3 21 14 33
29 33 16 0 57 75 57 107 0 62 177 364 397 680 122 175 139 195 152 183 5 -5
28 -84 51 -175 23 -91 72 -271 110 -400 89 -303 110 -391 110 -468 0 -60 -1
-64 -32 -80 -82 -44 -186 -167 -208 -247 -12 -43 -11 -51 11 -103 23 -54 24
-67 25 -287 0 -164 -5 -274 -18 -383 -10 -84 -18 -155 -18 -157 0 -3 8 -5 19
-5 16 0 21 20 44 168 15 92 31 213 37 268 5 56 12 109 16 118 10 27 32 18 39
-16 4 -18 12 -44 18 -58 6 -14 12 -56 13 -93 2 -41 9 -78 18 -92 9 -13 16 -41
15 -62 -1 -287 2 -351 21 -368 42 -38 87 -44 330 -44 129 -1 241 3 248 8 16 9
37 93 46 175 l6 58 -46 43 c-25 24 -54 50 -65 59 -12 10 -19 29 -19 50 0 19
-9 53 -20 77 -25 56 -25 96 0 150 24 53 25 97 4 127 -13 19 -14 29 -5 50 18
45 17 172 -2 209 -9 18 -17 53 -17 78 0 25 -6 61 -14 79 -8 19 -17 74 -21 122
-3 49 -17 145 -30 214 -53 278 -75 658 -75 1285 1 359 8 580 26 780 6 65 12
85 41 127 73 105 172 287 196 359 14 40 40 121 57 179 18 58 64 186 103 285
38 99 102 277 141 395 l71 215 50 -1 c28 -1 110 -5 183 -9 112 -7 135 -6 150
7 13 12 52 17 175 20 86 3 160 8 163 11 11 11 -66 695 -126 1120 -22 152 -40
292 -40 310 0 17 -9 68 -20 112 -11 44 -23 136 -26 205 -3 69 -12 148 -19 175
-8 28 -19 100 -25 160 -13 130 -45 271 -94 413 -19 56 -44 136 -56 176 -19 67
-19 77 -6 108 8 18 28 79 46 136 17 56 35 102 40 102 5 0 37 -42 71 -92 34
-51 131 -185 214 -298 266 -359 486 -698 559 -864 31 -70 98 -166 177 -253 31
-34 71 -87 88 -117 17 -30 46 -67 66 -83 25 -20 35 -36 35 -56 l0 -27 53 26
c28 14 62 35 74 47 34 31 39 13 15 -53 -20 -57 -21 -90 -2 -90 5 0 30 29 56
64 l48 65 31 -36 31 -37 12 72 c7 39 12 104 12 144 0 71 -1 75 -41 123 -47 57
-64 87 -74 132 -9 43 -42 69 -182 143 -217 115 -234 135 -368 420 -132 282
-176 387 -255 610 -83 236 -134 349 -219 490 -62 102 -114 218 -126 283 -6 30
0 53 31 124 36 81 39 95 39 178 -1 90 -16 157 -55 235 -10 19 -21 50 -25 68
l-7 32 74 0 73 0 -75 48 c-41 27 -84 59 -95 72 l-20 23 25 -6 c14 -4 35 -10
48 -13 38 -11 25 17 -37 75 -57 55 -107 118 -99 126 2 2 36 -20 76 -49 65 -49
149 -93 158 -83 2 2 -30 36 -71 77 -41 40 -75 76 -75 81 0 4 -3 15 -7 24 -6
16 -4 16 23 -1 16 -9 43 -30 59 -44 17 -15 45 -37 63 -50 30 -20 35 -21 49 -8
13 14 11 21 -20 69 -19 30 -52 70 -72 89 -41 39 -167 193 -208 255 -14 22 -35
65 -45 95 -11 30 -29 80 -40 111 -11 31 -30 97 -42 145 -12 49 -36 118 -53
153 -17 36 -49 141 -72 235 -25 100 -57 204 -79 250 -40 88 -46 117 -19 95 9
-8 22 -27 29 -44 7 -16 13 -23 14 -15 0 27 -104 292 -138 351 -34 60 -67 143
-53 135 21 -13 84 -119 117 -196 45 -106 113 -309 125 -375 5 -27 27 -124 48
-215 29 -122 40 -154 40 -122 2 76 -20 233 -45 329 -13 51 -24 106 -24 122 0
16 -7 47 -15 70 -18 52 -2 53 27 1 13 -22 29 -38 35 -35 8 2 12 -3 10 -13 -1
-9 12 -55 30 -102 17 -47 49 -145 70 -219 26 -92 39 -125 41 -105 3 30 -20
137 -57 259 -12 38 -21 79 -21 90 0 27 -82 208 -113 248 -13 18 -27 44 -31 60
-9 39 -205 327 -222 327 -16 0 -151 270 -185 370 -12 36 -33 87 -46 114 -14
27 -22 57 -20 68 7 25 -51 89 -152 170 -107 85 -141 101 -241 107 -47 3 -107
3 -135 0z m999 -1215 c3 -8 2 -12 -4 -9 -6 3 -10 10 -10 16 0 14 7 11 14 -7z
m46 -88 c0 -6 -7 -2 -15 8 -8 11 -15 25 -15 30 0 6 7 2 15 -8 8 -11 15 -25 15
-30z m1328 -4541 c20 -14 48 -41 61 -60 22 -33 23 -38 10 -71 -8 -20 -24 -43
-36 -51 -20 -14 -23 -11 -61 39 -51 69 -85 136 -78 154 8 22 63 16 104 -11z"/>
<path d="M3854 11025 c4 -16 12 -34 17 -39 5 -6 5 4 -1 24 -12 42 -25 55 -16
15z"/>
</g>
</svg>
